<svg width="16" height="16" viewBox="0 0 16 16" xmlns="http://www.w3.org/2000/svg">
<path fill-rule="evenodd" clip-rule="evenodd" d="M2 0C0.895431 0 0 0.895431 0 2C0 3.10457 0.895431 4 2 4C3.10457 4 4 3.10457 4 2C4 0.895431 3.10457 0 2 0ZM2 6C0.895431 6 0 6.89543 0 8C0 9.10457 0.895431 10 2 10C3.10457 10 4 9.10457 4 8C4 6.89543 3.10457 6 2 6ZM0 14C0 12.8954 0.895431 12 2 12C3.10457 12 4 12.8954 4 14C4 15.1046 3.10457 16 2 16C0.895431 16 0 15.1046 0 14ZM7 1C6.44772 1 6 1.44772 6 2C6 2.55228 6.44772 3 7 3H15C15.5523 3 16 2.55228 16 2C16 1.44772 15.5523 1 15 1H7ZM6 8C6 7.44772 6.44772 7 7 7H15C15.5523 7 16 7.44772 16 8C16 8.55229 15.5523 9 15 9H7C6.44772 9 6 8.55229 6 8ZM7 13C6.44772 13 6 13.4477 6 14C6 14.5523 6.44772 15 7 15H15C15.5523 15 16 14.5523 16 14C16 13.4477 15.5523 13 15 13H7Z"/>
</svg>
