<svg width="16" height="16" viewBox="0 0 16 16" fill="none" xmlns="http://www.w3.org/2000/svg">
<g clip-path="url(#clip0_0_556)">
<path fill-rule="evenodd" clip-rule="evenodd" d="M3.41965 1L3.70316 0.503861L3.99108 0H4.5714H11.4285H12.0089L12.2968 0.503861L12.5803 1H14.5H15.6286L15.4927 2.12042L13.9158 15.1204L13.8091 16H12.923H3.07689H2.19087L2.08417 15.1204L0.507247 2.12042L0.371338 1H1.49997H3.41965ZM3.96292 14L2.6286 3H13.3713L12.037 14H3.96292ZM9.00251 4.92875L8.50251 11.9288L10.4974 12.0712L10.9974 5.07125L9.00251 4.92875ZM5.50251 12.0712L5.00251 5.07125L6.99743 4.92875L7.49743 11.9288L5.50251 12.0712Z" fill="
#FFFFFF"/>
</g>
<defs>
<clipPath id="clip0_0_556">
<rect width="16" height="16" fill="white"/>
</clipPath>
</defs>
</svg>
